<?xml version="1.0" standalone="no"?>
<!DOCTYPE svg PUBLIC "-//W3C//DTD SVG 20010904//EN" 
"http://www.w3.org/TR/2001/REC-SVG-20010904/DTD/svg10.dtd"> 
<svg xmlns="http://www.w3.org/2000/svg" xmlns:xlink="http://www.w3.org/1999/xlink" 
    width="29.72cm" height="21.00cm" viewBox="0 0 117000 82670 "> 
<title>SVG Picture created as max3232-brd.svg </title>
<desc>Picture generated by wxSVG v0100 </desc>
<g style="fill:black; stroke:black; stroke-width:1">
</g>
<g style="fill:#000000; fill-opacity:0.0; stroke:#000000; stroke-opacity:1.00; stroke-linecap:round; stroke-linejoin:round; stroke-width:150" 
   transform="translate(0.00 0.00) scale(1.00 1.00)">
<path d="M18500 17000 L25500 17000" /> 
<path d="M18500 28500 L18500 17000" /> 
<path d="M25500 28500 L18500 28500" /> 
<path d="M25500 17000 L25500 28500" /> 
</g>
<g style="fill:#000000; fill-opacity:0.0; stroke:#000000; stroke-opacity:1.00; stroke-linecap:round; stroke-linejoin:round; stroke-width:126" 
   transform="translate(0.00 0.00) scale(1.00 1.00)">
<path d="M19500 22000 L19500 20500" /> 
<path d="M20000 22500 L19500 22000" /> 
<path d="M22000 19000 L22000 18000" /> 
<path d="M21000 20000 L22000 19000" /> 
<path d="M20000 20000 L21000 20000" /> 
<path d="M19500 20500 L20000 20000" /> 
<path d="M20625 21250 L20625 21625" /> 
<path d="M21000 22000 L21000 22500" /> 
<path d="M20625 21625 L21000 22000" /> 
<path d="M22000 25000 L22500 25000" /> 
<path d="M20000 23500 L19500 23500" /> 
<path d="M20500 19500 L20900 19100" /> 
<path d="M20500 22500 L20500 23000" /> 
<path d="M20900 19100 L20900 18000" /> 
<path d="M19500 23500 L19000 23000" /> 
<path d="M19000 20000 L19500 19500" /> 
<path d="M19500 19500 L20500 19500" /> 
<path d="M20500 23000 L20000 23500" /> 
<path d="M19000 23000 L19000 20000" /> 
<path d="M24500 25125 L24500 24375" /> 
<path d="M23500 24500 L23500 25000" /> 
<path d="M23625 24375 L23500 24500" /> 
<path d="M20000 26500 L19000 25500" /> 
<path d="M24500 24375 L23625 24375" /> 
<path d="M19500 24000 L23000 24000" /> 
<path d="M23000 24000 L23500 24500" /> 
<path d="M19000 24500 L19500 24000" /> 
<path d="M19000 25500 L19000 24500" /> 
<path d="M23000 23000 L23000 22500" /> 
<path d="M24500 23625 L23625 23625" /> 
<path d="M23625 23625 L23000 23000" /> 
<path d="M22500 22000 L22875 21625" /> 
<path d="M22500 22500 L22500 22000" /> 
<path d="M22875 21625 L22875 21250" /> 
<path d="M23500 22000 L23625 21875" /> 
<path d="M23625 21875 L23625 21250" /> 
<path d="M23500 22500 L23500 22000" /> 
<path d="M21375 21875 L21375 21250" /> 
<path d="M21500 22000 L21375 21875" /> 
<path d="M21500 22500 L21500 22000" /> 
<path d="M22125 21875 L22125 21250" /> 
<path d="M22000 22500 L22000 22000" /> 
<path d="M22000 22000 L22125 21875" /> 
<path d="M21500 26000 L22000 26500" /> 
<path d="M21000 26000 L21500 26000" /> 
<path d="M20500 25500 L21000 26000" /> 
<path d="M20500 25000 L20500 25500" /> 
<path d="M20000 25500 L20000 25000" /> 
<path d="M21000 26500 L20000 25500" /> 
</g>
<g style="fill:#000000; fill-opacity:0.0; stroke:#000000; stroke-opacity:1.00; stroke-linecap:round; stroke-linejoin:round; stroke-width:100" 
   transform="translate(0.00 0.00) scale(1.00 1.00)">
<path d="M25175 28175 L25175 28175" /> 
<path d="M25025 28175 L25175 28175" /> 
<path d="M25025 25987 L25025 28175" /> 
<path d="M24963 25925 L25025 25987" /> 
<path d="M24550 25925 L24963 25925" /> 
<path d="M24550 26238 L24550 25925" /> 
<path d="M24612 26300 L24550 26238" /> 
<path d="M24726 26299 L24612 26300" /> 
<path d="M24825 26299 L24726 26299" /> 
<path d="M24916 26261 L24825 26299" /> 
<path d="M24986 26191 L24916 26261" /> 
<path d="M25024 26099 L24986 26191" /> 
<path d="M25025 25987 L25024 26099" /> 
<path d="M25025 28175 L25025 25987" /> 
<path d="M24450 28175 L25025 28175" /> 
<path d="M24450 26238 L24450 28175" /> 
<path d="M24450 25925 L24450 26238" /> 
<path d="M24037 25925 L24450 25925" /> 
<path d="M23975 25987 L24037 25925" /> 
<path d="M23976 26099 L23975 25987" /> 
<path d="M24014 26191 L23976 26099" /> 
<path d="M24084 26261 L24014 26191" /> 
<path d="M24175 26299 L24084 26261" /> 
<path d="M24274 26299 L24175 26299" /> 
<path d="M24388 26300 L24274 26299" /> 
<path d="M24450 26238 L24388 26300" /> 
<path d="M24450 28175 L24450 26238" /> 
<path d="M23543 28175 L24450 28175" /> 
<path d="M23543 26579 L23543 28175" /> 
<path d="M23532 26366 L23543 26579" /> 
<path d="M23472 26219 L23532 26366" /> 
<path d="M23378 26192 L23472 26219" /> 
<path d="M23308 26262 L23378 26192" /> 
<path d="M23308 26122 L23308 26262" /> 
<path d="M23281 26028 L23308 26122" /> 
<path d="M23079 25957 L23281 26028" /> 
<path d="M22950 25963 L23079 25957" /> 
<path d="M22950 25413 L22950 25963" /> 
<path d="M22950 25100 L22950 25413" /> 
<path d="M22950 25050 L22950 25100" /> 
<path d="M22950 24950 L22950 25050" /> 
<path d="M22950 24900 L22950 24950" /> 
<path d="M22950 24587 L22950 24900" /> 
<path d="M22888 24525 L22950 24587" /> 
<path d="M22851 24526 L22888 24525" /> 
<path d="M22759 24564 L22851 24526" /> 
<path d="M22750 24573 L22759 24564" /> 
<path d="M22741 24564 L22750 24573" /> 
<path d="M22650 24526 L22741 24564" /> 
<path d="M22551 24526 L22650 24526" /> 
<path d="M22351 24526 L22551 24526" /> 
<path d="M22259 24564 L22351 24526" /> 
<path d="M22250 24573 L22259 24564" /> 
<path d="M22241 24564 L22250 24573" /> 
<path d="M22150 24526 L22241 24564" /> 
<path d="M22051 24526 L22150 24526" /> 
<path d="M21851 24526 L22051 24526" /> 
<path d="M21759 24564 L21851 24526" /> 
<path d="M21750 24573 L21759 24564" /> 
<path d="M21741 24564 L21750 24573" /> 
<path d="M21650 24526 L21741 24564" /> 
<path d="M21551 24526 L21650 24526" /> 
<path d="M21351 24526 L21551 24526" /> 
<path d="M21259 24564 L21351 24526" /> 
<path d="M21250 24573 L21259 24564" /> 
<path d="M21241 24564 L21250 24573" /> 
<path d="M21149 24526 L21241 24564" /> 
<path d="M21112 24525 L21149 24526" /> 
<path d="M21050 24587 L21112 24525" /> 
<path d="M21050 24900 L21050 24587" /> 
<path d="M21050 24950 L21050 24900" /> 
<path d="M21050 25050 L21050 24950" /> 
<path d="M21050 25100 L21050 25050" /> 
<path d="M21050 25413 L21050 25100" /> 
<path d="M21112 25475 L21050 25413" /> 
<path d="M21149 25474 L21112 25475" /> 
<path d="M21241 25436 L21149 25474" /> 
<path d="M21250 25427 L21241 25436" /> 
<path d="M21259 25436 L21250 25427" /> 
<path d="M21350 25474 L21259 25436" /> 
<path d="M21449 25474 L21350 25474" /> 
<path d="M21649 25474 L21449 25474" /> 
<path d="M21741 25436 L21649 25474" /> 
<path d="M21750 25427 L21741 25436" /> 
<path d="M21759 25436 L21750 25427" /> 
<path d="M21850 25474 L21759 25436" /> 
<path d="M21949 25474 L21850 25474" /> 
<path d="M22149 25474 L21949 25474" /> 
<path d="M22241 25436 L22149 25474" /> 
<path d="M22250 25427 L22241 25436" /> 
<path d="M22259 25436 L22250 25427" /> 
<path d="M22350 25474 L22259 25436" /> 
<path d="M22449 25474 L22350 25474" /> 
<path d="M22649 25474 L22449 25474" /> 
<path d="M22741 25436 L22649 25474" /> 
<path d="M22750 25427 L22741 25436" /> 
<path d="M22759 25436 L22750 25427" /> 
<path d="M22851 25474 L22759 25436" /> 
<path d="M22888 25475 L22851 25474" /> 
<path d="M22950 25413 L22888 25475" /> 
<path d="M22950 25963 L22950 25413" /> 
<path d="M22866 25968 L22950 25963" /> 
<path d="M22719 26028 L22866 25968" /> 
<path d="M22692 26122 L22719 26028" /> 
<path d="M23000 26429 L22692 26122" /> 
<path d="M23308 26122 L23000 26429" /> 
<path d="M23308 26262 L23308 26122" /> 
<path d="M23071 26500 L23308 26262" /> 
<path d="M23378 26808 L23071 26500" /> 
<path d="M23472 26781 L23378 26808" /> 
<path d="M23543 26579 L23472 26781" /> 
<path d="M23543 28175 L23543 26579" /> 
<path d="M23308 28175 L23543 28175" /> 
<path d="M23308 26878 L23308 28175" /> 
<path d="M23000 26571 L23308 26878" /> 
<path d="M22692 26878 L23000 26571" /> 
<path d="M22719 26972 L22692 26878" /> 
<path d="M22921 27043 L22719 26972" /> 
<path d="M23134 27032 L22921 27043" /> 
<path d="M23281 26972 L23134 27032" /> 
<path d="M23308 26878 L23281 26972" /> 
<path d="M23308 28175 L23308 26878" /> 
<path d="M18825 28175 L23308 28175" /> 
<path d="M18825 25767 L18825 28175" /> 
<path d="M19451 26393 L18825 25767" /> 
<path d="M19451 26849 L19451 26393" /> 
<path d="M19489 26941 L19451 26849" /> 
<path d="M19559 27011 L19489 26941" /> 
<path d="M19650 27049 L19559 27011" /> 
<path d="M19749 27049 L19650 27049" /> 
<path d="M20349 27049 L19749 27049" /> 
<path d="M20441 27011 L20349 27049" /> 
<path d="M20511 26941 L20441 27011" /> 
<path d="M20549 26850 L20511 26941" /> 
<path d="M20549 26825 L20549 26850" /> 
<path d="M20689 26965 L20549 26825" /> 
<path d="M20891 27049 L20689 26965" /> 
<path d="M21109 27049 L20891 27049" /> 
<path d="M21311 26965 L21109 27049" /> 
<path d="M21465 26811 L21311 26965" /> 
<path d="M21500 26726 L21465 26811" /> 
<path d="M21535 26811 L21500 26726" /> 
<path d="M21689 26965 L21535 26811" /> 
<path d="M21891 27049 L21689 26965" /> 
<path d="M22109 27049 L21891 27049" /> 
<path d="M22311 26965 L22109 27049" /> 
<path d="M22465 26811 L22311 26965" /> 
<path d="M22502 26719 L22465 26811" /> 
<path d="M22528 26781 L22502 26719" /> 
<path d="M22622 26808 L22528 26781" /> 
<path d="M22929 26500 L22622 26808" /> 
<path d="M22622 26192 L22929 26500" /> 
<path d="M22528 26219 L22622 26192" /> 
<path d="M22504 26284 L22528 26219" /> 
<path d="M22465 26189 L22504 26284" /> 
<path d="M22311 26035 L22465 26189" /> 
<path d="M22109 25951 L22311 26035" /> 
<path d="M21893 25951 L22109 25951" /> 
<path d="M21721 25779 L21893 25951" /> 
<path d="M21620 25711 L21721 25779" /> 
<path d="M21500 25687 L21620 25711" /> 
<path d="M21129 25687 L21500 25687" /> 
<path d="M20902 25460 L21129 25687" /> 
<path d="M20950 25413 L20902 25460" /> 
<path d="M20950 25100 L20950 25413" /> 
<path d="M20950 25050 L20950 25100" /> 
<path d="M20950 24950 L20950 25050" /> 
<path d="M20950 24900 L20950 24950" /> 
<path d="M20950 24587 L20950 24900" /> 
<path d="M20888 24525 L20950 24587" /> 
<path d="M20851 24526 L20888 24525" /> 
<path d="M20759 24564 L20851 24526" /> 
<path d="M20750 24573 L20759 24564" /> 
<path d="M20741 24564 L20750 24573" /> 
<path d="M20650 24526 L20741 24564" /> 
<path d="M20551 24526 L20650 24526" /> 
<path d="M20351 24526 L20551 24526" /> 
<path d="M20259 24564 L20351 24526" /> 
<path d="M20250 24573 L20259 24564" /> 
<path d="M20241 24564 L20250 24573" /> 
<path d="M20150 24526 L20241 24564" /> 
<path d="M20051 24526 L20150 24526" /> 
<path d="M19851 24526 L20051 24526" /> 
<path d="M19759 24564 L19851 24526" /> 
<path d="M19689 24634 L19759 24564" /> 
<path d="M19651 24725 L19689 24634" /> 
<path d="M19651 24824 L19651 24725" /> 
<path d="M19651 25274 L19651 24824" /> 
<path d="M19687 25361 L19651 25274" /> 
<path d="M19687 25500 L19687 25361" /> 
<path d="M19711 25620 L19687 25500" /> 
<path d="M19779 25721 L19711 25620" /> 
<path d="M20009 25951 L19779 25721" /> 
<path d="M19893 25951 L20009 25951" /> 
<path d="M19313 25371 L19893 25951" /> 
<path d="M19313 24629 L19313 25371" /> 
<path d="M19629 24313 L19313 24629" /> 
<path d="M22871 24313 L19629 24313" /> 
<path d="M23097 24539 L22871 24313" /> 
<path d="M23050 24587 L23097 24539" /> 
<path d="M23050 24900 L23050 24587" /> 
<path d="M23050 24950 L23050 24900" /> 
<path d="M23050 25050 L23050 24950" /> 
<path d="M23050 25100 L23050 25050" /> 
<path d="M23050 25413 L23050 25100" /> 
<path d="M23112 25475 L23050 25413" /> 
<path d="M23149 25474 L23112 25475" /> 
<path d="M23241 25436 L23149 25474" /> 
<path d="M23250 25427 L23241 25436" /> 
<path d="M23259 25436 L23250 25427" /> 
<path d="M23350 25474 L23259 25436" /> 
<path d="M23449 25474 L23350 25474" /> 
<path d="M23649 25474 L23449 25474" /> 
<path d="M23741 25436 L23649 25474" /> 
<path d="M23811 25366 L23741 25436" /> 
<path d="M23849 25275 L23811 25366" /> 
<path d="M23849 25176 L23849 25275" /> 
<path d="M23849 24726 L23849 25176" /> 
<path d="M23833 24688 L23849 24726" /> 
<path d="M24012 24688 L23833 24688" /> 
<path d="M24014 24691 L24012 24688" /> 
<path d="M24073 24750 L24014 24691" /> 
<path d="M24014 24809 L24073 24750" /> 
<path d="M23976 24900 L24014 24809" /> 
<path d="M23976 24999 L23976 24900" /> 
<path d="M23976 25349 L23976 24999" /> 
<path d="M24014 25441 L23976 25349" /> 
<path d="M24073 25500 L24014 25441" /> 
<path d="M24014 25559 L24073 25500" /> 
<path d="M23976 25651 L24014 25559" /> 
<path d="M23975 25763 L23976 25651" /> 
<path d="M24037 25825 L23975 25763" /> 
<path d="M24400 25825 L24037 25825" /> 
<path d="M24450 25825 L24400 25825" /> 
<path d="M24550 25825 L24450 25825" /> 
<path d="M24600 25825 L24550 25825" /> 
<path d="M24963 25825 L24600 25825" /> 
<path d="M25025 25763 L24963 25825" /> 
<path d="M25024 25651 L25025 25763" /> 
<path d="M24986 25559 L25024 25651" /> 
<path d="M24927 25500 L24986 25559" /> 
<path d="M24986 25441 L24927 25500" /> 
<path d="M25024 25350 L24986 25441" /> 
<path d="M25024 25251 L25024 25350" /> 
<path d="M25024 24901 L25024 25251" /> 
<path d="M24986 24809 L25024 24901" /> 
<path d="M24927 24750 L24986 24809" /> 
<path d="M24986 24691 L24927 24750" /> 
<path d="M25024 24600 L24986 24691" /> 
<path d="M25024 24501 L25024 24600" /> 
<path d="M25024 24151 L25024 24501" /> 
<path d="M24986 24059 L25024 24151" /> 
<path d="M24927 24000 L24986 24059" /> 
<path d="M24986 23941 L24927 24000" /> 
<path d="M25024 23850 L24986 23941" /> 
<path d="M25024 23751 L25024 23850" /> 
<path d="M25024 23401 L25024 23751" /> 
<path d="M24986 23309 L25024 23401" /> 
<path d="M24916 23239 L24986 23309" /> 
<path d="M24825 23201 L24916 23239" /> 
<path d="M24800 23201 L24825 23201" /> 
<path d="M24800 18112 L24800 23201" /> 
<path d="M24738 18050 L24800 18112" /> 
<path d="M24250 18050 L24738 18050" /> 
<path d="M24250 19188 L24250 18050" /> 
<path d="M24312 19250 L24250 19188" /> 
<path d="M24599 19249 L24312 19250" /> 
<path d="M24691 19211 L24599 19249" /> 
<path d="M24761 19141 L24691 19211" /> 
<path d="M24799 19050 L24761 19141" /> 
<path d="M24799 18951 L24799 19050" /> 
<path d="M24800 18112 L24799 18951" /> 
<path d="M24800 23201 L24800 18112" /> 
<path d="M24726 23201 L24800 23201" /> 
<path d="M24176 23201 L24726 23201" /> 
<path d="M24084 23239 L24176 23201" /> 
<path d="M24014 23309 L24084 23239" /> 
<path d="M24012 23312 L24014 23309" /> 
<path d="M23754 23312 L24012 23312" /> 
<path d="M23416 22974 L23754 23312" /> 
<path d="M23449 22974 L23416 22974" /> 
<path d="M23649 22974 L23449 22974" /> 
<path d="M23741 22936 L23649 22974" /> 
<path d="M23811 22866 L23741 22936" /> 
<path d="M23849 22775 L23811 22866" /> 
<path d="M23849 22676 L23849 22775" /> 
<path d="M23849 22226 L23849 22676" /> 
<path d="M23813 22138 L23849 22226" /> 
<path d="M23813 22129 L23813 22138" /> 
<path d="M23846 22097 L23813 22129" /> 
<path d="M23846 22096 L23846 22097" /> 
<path d="M23914 21995 L23846 22096" /> 
<path d="M23937 21876 L23914 21995" /> 
<path d="M23938 21875 L23937 21876" /> 
<path d="M23938 21737 L23938 21875" /> 
<path d="M23941 21736 L23938 21737" /> 
<path d="M24011 21666 L23941 21736" /> 
<path d="M24049 21575 L24011 21666" /> 
<path d="M24049 21476 L24049 21575" /> 
<path d="M24049 20926 L24049 21476" /> 
<path d="M24011 20834 L24049 20926" /> 
<path d="M23941 20764 L24011 20834" /> 
<path d="M23850 20726 L23941 20764" /> 
<path d="M23751 20726 L23850 20726" /> 
<path d="M23401 20726 L23751 20726" /> 
<path d="M23309 20764 L23401 20726" /> 
<path d="M23250 20823 L23309 20764" /> 
<path d="M23191 20764 L23250 20823" /> 
<path d="M23100 20726 L23191 20764" /> 
<path d="M23001 20726 L23100 20726" /> 
<path d="M22651 20726 L23001 20726" /> 
<path d="M22559 20764 L22651 20726" /> 
<path d="M22500 20823 L22559 20764" /> 
<path d="M22441 20764 L22500 20823" /> 
<path d="M22350 20726 L22441 20764" /> 
<path d="M22251 20726 L22350 20726" /> 
<path d="M21901 20726 L22251 20726" /> 
<path d="M21809 20764 L21901 20726" /> 
<path d="M21750 20823 L21809 20764" /> 
<path d="M21691 20764 L21750 20823" /> 
<path d="M21600 20726 L21691 20764" /> 
<path d="M21501 20726 L21600 20726" /> 
<path d="M21151 20726 L21501 20726" /> 
<path d="M21059 20764 L21151 20726" /> 
<path d="M21000 20823 L21059 20764" /> 
<path d="M20941 20764 L21000 20823" /> 
<path d="M20850 20726 L20941 20764" /> 
<path d="M20751 20726 L20850 20726" /> 
<path d="M20401 20726 L20751 20726" /> 
<path d="M20309 20764 L20401 20726" /> 
<path d="M20250 20823 L20309 20764" /> 
<path d="M20191 20764 L20250 20823" /> 
<path d="M20099 20726 L20191 20764" /> 
<path d="M19987 20725 L20099 20726" /> 
<path d="M19925 20787 L19987 20725" /> 
<path d="M19925 21150 L19925 20787" /> 
<path d="M19925 21200 L19925 21150" /> 
<path d="M19925 21300 L19925 21200" /> 
<path d="M19925 21350 L19925 21300" /> 
<path d="M19925 21713 L19925 21350" /> 
<path d="M19987 21775 L19925 21713" /> 
<path d="M20099 21774 L19987 21775" /> 
<path d="M20191 21736 L20099 21774" /> 
<path d="M20250 21677 L20191 21736" /> 
<path d="M20309 21736 L20250 21677" /> 
<path d="M20338 21748 L20309 21736" /> 
<path d="M20404 21846 L20338 21748" /> 
<path d="M20583 22026 L20404 21846" /> 
<path d="M20551 22026 L20583 22026" /> 
<path d="M20351 22026 L20551 22026" /> 
<path d="M20259 22064 L20351 22026" /> 
<path d="M20250 22073 L20259 22064" /> 
<path d="M20241 22064 L20250 22073" /> 
<path d="M20150 22026 L20241 22064" /> 
<path d="M20051 22026 L20150 22026" /> 
<path d="M19968 22026 L20051 22026" /> 
<path d="M19813 21871 L19968 22026" /> 
<path d="M19813 21725 L19813 21871" /> 
<path d="M19825 21713 L19813 21725" /> 
<path d="M19825 21350 L19825 21713" /> 
<path d="M19825 21300 L19825 21350" /> 
<path d="M19825 21200 L19825 21300" /> 
<path d="M19825 21150 L19825 21200" /> 
<path d="M19825 20787 L19825 21150" /> 
<path d="M19813 20775 L19825 20787" /> 
<path d="M19813 20629 L19813 20775" /> 
<path d="M20129 20313 L19813 20629" /> 
<path d="M21000 20313 L20129 20313" /> 
<path d="M21120 20289 L21000 20313" /> 
<path d="M21221 20221 L21120 20289" /> 
<path d="M22193 19249 L21221 20221" /> 
<path d="M22399 19249 L22193 19249" /> 
<path d="M22491 19211 L22399 19249" /> 
<path d="M22550 19152 L22491 19211" /> 
<path d="M22609 19211 L22550 19152" /> 
<path d="M22700 19249 L22609 19211" /> 
<path d="M22799 19249 L22700 19249" /> 
<path d="M23499 19249 L22799 19249" /> 
<path d="M23591 19211 L23499 19249" /> 
<path d="M23650 19152 L23591 19211" /> 
<path d="M23709 19211 L23650 19152" /> 
<path d="M23801 19249 L23709 19211" /> 
<path d="M24088 19250 L23801 19249" /> 
<path d="M24150 19188 L24088 19250" /> 
<path d="M24150 18100 L24150 19188" /> 
<path d="M24150 18050 L24150 18100" /> 
<path d="M24150 17950 L24150 18050" /> 
<path d="M24250 17950 L24150 17950" /> 
<path d="M24300 17950 L24250 17950" /> 
<path d="M24738 17950 L24300 17950" /> 
<path d="M24800 17888 L24738 17950" /> 
<path d="M24799 17325 L24800 17888" /> 
<path d="M25175 17325 L24799 17325" /> 
<path d="M25175 28175 L25175 17325" /> 
</g>
<g style="fill:#000000; fill-opacity:1.00; stroke:#000000; stroke-opacity:1.00; stroke-linecap:round; stroke-linejoin:round; stroke-width:0" 
   transform="translate(0.00 0.00) scale(1.00 1.00)">
<polygon style="fill-rule:evenodd; " 
points="24550,25925
24550,26238
24612,26300
24726,26299
24825,26299
24916,26261
24986,26191
25024,26099
25025,25987
25025,28175
24450,28175
24450,26238
24450,25925
24037,25925
23975,25987
23976,26099
24014,26191
24084,26261
24175,26299
24274,26299
24388,26300
24450,26238
24450,28175
23543,28175
23543,26579
23532,26366
23472,26219
23378,26192
23308,26262
23308,26122
23281,26028
23079,25957
22950,25963
22950,25413
22950,25100
22950,25050
22950,24950
22950,24900
22950,24587
22888,24525
22851,24526
22759,24564
22750,24573
22741,24564
22650,24526
22551,24526
22351,24526
22259,24564
22250,24573
22241,24564
22150,24526
22051,24526
21851,24526
21759,24564
21750,24573
21741,24564
21650,24526
21551,24526
21351,24526
21259,24564
21250,24573
21241,24564
21149,24526
21112,24525
21050,24587
21050,24900
21050,24950
21050,25050
21050,25100
21050,25413
21112,25475
21149,25474
21241,25436
21250,25427
21259,25436
21350,25474
21449,25474
21649,25474
21741,25436
21750,25427
21759,25436
21850,25474
21949,25474
22149,25474
22241,25436
22250,25427
22259,25436
22350,25474
22449,25474
22649,25474
22741,25436
22750,25427
22759,25436
22851,25474
22888,25475
22950,25413
22950,25963
22866,25968
22719,26028
22692,26122
23000,26429
23308,26122
23308,26262
23071,26500
23378,26808
23472,26781
23543,26579
23543,28175
23308,28175
23308,26878
23000,26571
22692,26878
22719,26972
22921,27043
23134,27032
23281,26972
23308,26878
23308,28175
18825,28175
18825,25767
19451,26393
19451,26849
19489,26941
19559,27011
19650,27049
19749,27049
20349,27049
20441,27011
20511,26941
20549,26850
20549,26825
20689,26965
20891,27049
21109,27049
21311,26965
21465,26811
21500,26726
21535,26811
21689,26965
21891,27049
22109,27049
22311,26965
22465,26811
22502,26719
22528,26781
22622,26808
22929,26500
22622,26192
22528,26219
22504,26284
22465,26189
22311,26035
22109,25951
21893,25951
21721,25779
21620,25711
21500,25687
21129,25687
20902,25460
20950,25413
20950,25100
20950,25050
20950,24950
20950,24900
20950,24587
20888,24525
20851,24526
20759,24564
20750,24573
20741,24564
20650,24526
20551,24526
20351,24526
20259,24564
20250,24573
20241,24564
20150,24526
20051,24526
19851,24526
19759,24564
19689,24634
19651,24725
19651,24824
19651,25274
19687,25361
19687,25500
19711,25620
19779,25721
20009,25951
19893,25951
19313,25371
19313,24629
19629,24313
22871,24313
23097,24539
23050,24587
23050,24900
23050,24950
23050,25050
23050,25100
23050,25413
23112,25475
23149,25474
23241,25436
23250,25427
23259,25436
23350,25474
23449,25474
23649,25474
23741,25436
23811,25366
23849,25275
23849,25176
23849,24726
23833,24688
24012,24688
24014,24691
24073,24750
24014,24809
23976,24900
23976,24999
23976,25349
24014,25441
24073,25500
24014,25559
23976,25651
23975,25763
24037,25825
24400,25825
24450,25825
24550,25825
24600,25825
24963,25825
25025,25763
25024,25651
24986,25559
24927,25500
24986,25441
25024,25350
25024,25251
25024,24901
24986,24809
24927,24750
24986,24691
25024,24600
25024,24501
25024,24151
24986,24059
24927,24000
24986,23941
25024,23850
25024,23751
25024,23401
24986,23309
24916,23239
24825,23201
24800,23201
24800,18112
24738,18050
24250,18050
24250,19188
24312,19250
24599,19249
24691,19211
24761,19141
24799,19050
24799,18951
24800,18112
24800,23201
24726,23201
24176,23201
24084,23239
24014,23309
24012,23312
23754,23312
23416,22974
23449,22974
23649,22974
23741,22936
23811,22866
23849,22775
23849,22676
23849,22226
23813,22138
23813,22129
23846,22097
23846,22096
23914,21995
23937,21876
23938,21875
23938,21737
23941,21736
24011,21666
24049,21575
24049,21476
24049,20926
24011,20834
23941,20764
23850,20726
23751,20726
23401,20726
23309,20764
23250,20823
23191,20764
23100,20726
23001,20726
22651,20726
22559,20764
22500,20823
22441,20764
22350,20726
22251,20726
21901,20726
21809,20764
21750,20823
21691,20764
21600,20726
21501,20726
21151,20726
21059,20764
21000,20823
20941,20764
20850,20726
20751,20726
20401,20726
20309,20764
20250,20823
20191,20764
20099,20726
19987,20725
19925,20787
19925,21150
19925,21200
19925,21300
19925,21350
19925,21713
19987,21775
20099,21774
20191,21736
20250,21677
20309,21736
20338,21748
20404,21846
20583,22026
20551,22026
20351,22026
20259,22064
20250,22073
20241,22064
20150,22026
20051,22026
19968,22026
19813,21871
19813,21725
19825,21713
19825,21350
19825,21300
19825,21200
19825,21150
19825,20787
19813,20775
19813,20629
20129,20313
21000,20313
21120,20289
21221,20221
22193,19249
22399,19249
22491,19211
22550,19152
22609,19211
22700,19249
22799,19249
23499,19249
23591,19211
23650,19152
23709,19211
23801,19249
24088,19250
24150,19188
24150,18100
24150,18050
24150,17950
24250,17950
24300,17950
24738,17950
24800,17888
24799,17325
25175,17325
25175,28175
25175,28175
25025,28175
25025,25987
24963,25925
" /> 
<polygon style="fill-rule:evenodd; " 
points="23600,24775
23600,25225
23400,25225
23400,24775
" /> 
<polygon style="fill-rule:evenodd; " 
points="22600,24775
22600,25225
22400,25225
22400,24775
" /> 
<polygon style="fill-rule:evenodd; " 
points="22100,24775
22100,25225
21900,25225
21900,24775
" /> 
<polygon style="fill-rule:evenodd; " 
points="21600,24775
21600,25225
21400,25225
21400,24775
" /> 
<polygon style="fill-rule:evenodd; " 
points="21100,24775
21100,25225
20900,25225
20900,24775
" /> 
<polygon style="fill-rule:evenodd; " 
points="20600,24775
20600,25225
20400,25225
20400,24775
" /> 
<polygon style="fill-rule:evenodd; " 
points="20100,24775
20100,25225
19900,25225
19900,24775
" /> 
<polygon style="fill-rule:evenodd; " 
points="20100,22275
20100,22725
19900,22725
19900,22275
" /> 
<polygon style="fill-rule:evenodd; " 
points="20600,22275
20600,22725
20400,22725
20400,22275
" /> 
<polygon style="fill-rule:evenodd; " 
points="21100,22275
21100,22725
20900,22725
20900,22275
" /> 
<polygon style="fill-rule:evenodd; " 
points="21600,22275
21600,22725
21400,22725
21400,22275
" /> 
<polygon style="fill-rule:evenodd; " 
points="22100,22275
22100,22725
21900,22725
21900,22275
" /> 
<polygon style="fill-rule:evenodd; " 
points="22600,22275
22600,22725
22400,22725
22400,22275
" /> 
<polygon style="fill-rule:evenodd; " 
points="23100,22275
23100,22725
22900,22725
22900,22275
" /> 
<polygon style="fill-rule:evenodd; " 
points="23600,22275
23600,22725
23400,22725
23400,22275
" /> 
<polygon style="fill-rule:evenodd; " 
points="23100,24775
23100,25225
22900,25225
22900,24775
" /> 
<path d="M21698 24250 L21702 24250" /> 
<path d="M21700 24248 L21700 24252" /> 
</g>
<g style="fill:#000000; fill-opacity:0.0; stroke:#000000; stroke-opacity:1.00; stroke-linecap:round; stroke-linejoin:round; stroke-width:80" 
   transform="translate(0.00 0.00) scale(1.00 1.00)">
<path d="M21395 24012 L21395 24336" /> 
<path d="M21395 24336 L21414 24374" /> 
<path d="M21414 24374 L21433 24393" /> 
<path d="M21433 24393 L21471 24412" /> 
<path d="M21471 24412 L21548 24412" /> 
<path d="M21548 24412 L21586 24393" /> 
<path d="M21586 24393 L21605 24374" /> 
<path d="M21605 24374 L21624 24336" /> 
<path d="M21624 24336 L21624 24012" /> 
<g style = "stroke-linecap:round;" > 
<path d="M21624 24012 L21624 24012" /> 
</g><path d="M22024 24412 L21795 24412" /> 
<g style = "stroke-linecap:round;" > 
<path d="M21795 24412 L21795 24412" /> 
</g><path d="M21909 24412 L21909 24012" /> 
<path d="M21909 24012 L21871 24069" /> 
<path d="M21871 24069 L21833 24107" /> 
<path d="M21833 24107 L21795 24126" /> 
<g style = "stroke-linecap:round;" > 
<path d="M21795 24126 L21795 24126" /> 
</g></g>
<g style="fill:#000000; fill-opacity:0.0; stroke:#000000; stroke-opacity:1.00; stroke-linecap:round; stroke-linejoin:round; stroke-width:0" 
   transform="translate(0.00 0.00) scale(1.00 1.00)">
<path d="M21748 23250 L21752 23250" /> 
<path d="M21750 23248 L21750 23252" /> 
</g>
<g style="fill:#000000; fill-opacity:0.0; stroke:#000000; stroke-opacity:1.00; stroke-linecap:round; stroke-linejoin:round; stroke-width:80" 
   transform="translate(0.00 0.00) scale(1.00 1.00)">
<path d="M20683 23412 L20683 23012" /> 
<path d="M20683 23012 L20817 23298" /> 
<path d="M20817 23298 L20950 23012" /> 
<path d="M20950 23012 L20950 23412" /> 
<g style = "stroke-linecap:round;" > 
<path d="M20950 23412 L20950 23412" /> 
</g><path d="M21121 23298 L21312 23298" /> 
<g style = "stroke-linecap:round;" > 
<path d="M21312 23298 L21312 23298" /> 
</g><path d="M21083 23412 L21216 23012" /> 
<path d="M21216 23012 L21350 23412" /> 
<g style = "stroke-linecap:round;" > 
<path d="M21350 23412 L21350 23412" /> 
</g><path d="M21445 23012 L21712 23412" /> 
<g style = "stroke-linecap:round;" > 
<path d="M21712 23412 L21712 23412" /> 
</g><path d="M21712 23012 L21445 23412" /> 
<g style = "stroke-linecap:round;" > 
<path d="M21445 23412 L21445 23412" /> 
</g><path d="M21845 23050 L21864 23031" /> 
<path d="M21864 23031 L21902 23012" /> 
<path d="M21902 23012 L21998 23012" /> 
<path d="M21998 23012 L22036 23031" /> 
<path d="M22036 23031 L22055 23050" /> 
<path d="M22055 23050 L22074 23088" /> 
<path d="M22074 23088 L22074 23126" /> 
<path d="M22074 23126 L22055 23183" /> 
<path d="M22055 23183 L21826 23412" /> 
<path d="M21826 23412 L22074 23412" /> 
<g style = "stroke-linecap:round;" > 
<path d="M22074 23412 L22074 23412" /> 
</g><path d="M22207 23012 L22455 23012" /> 
<path d="M22455 23012 L22321 23164" /> 
<path d="M22321 23164 L22379 23164" /> 
<path d="M22379 23164 L22417 23183" /> 
<path d="M22417 23183 L22436 23202" /> 
<path d="M22436 23202 L22455 23240" /> 
<path d="M22455 23240 L22455 23336" /> 
<path d="M22455 23336 L22436 23374" /> 
<path d="M22436 23374 L22417 23393" /> 
<path d="M22417 23393 L22379 23412" /> 
<path d="M22379 23412 L22264 23412" /> 
<path d="M22264 23412 L22226 23393" /> 
<path d="M22226 23393 L22207 23374" /> 
<g style = "stroke-linecap:round;" > 
<path d="M22207 23374 L22207 23374" /> 
</g><path d="M22607 23050 L22626 23031" /> 
<path d="M22626 23031 L22664 23012" /> 
<path d="M22664 23012 L22760 23012" /> 
<path d="M22760 23012 L22798 23031" /> 
<path d="M22798 23031 L22817 23050" /> 
<path d="M22817 23050 L22836 23088" /> 
<path d="M22836 23088 L22836 23126" /> 
<path d="M22836 23126 L22817 23183" /> 
<path d="M22817 23183 L22588 23412" /> 
<path d="M22588 23412 L22836 23412" /> 
<g style = "stroke-linecap:round;" > 
<path d="M22836 23412 L22836 23412" /> 
</g><path d="M23950 24050 L23650 24050" /> 
<path d="M23650 24050 L23650 23450" /> 
<path d="M23650 23450 L23950 23450" /> 
<path d="M19550 24650 L19550 22850" /> 
<path d="M19550 22850 L23950 22850" /> 
<path d="M23950 22850 L23950 24650" /> 
<path d="M23950 24650 L19550 24650" /> 
</g>
<g style="fill:#000000; fill-opacity:1.00; stroke:#000000; stroke-opacity:1.00; stroke-linecap:round; stroke-linejoin:round; stroke-width:0" 
   transform="translate(0.00 0.00) scale(1.00 1.00)">
<polygon style="fill-rule:evenodd; " 
points="23800,20975
23800,21525
23450,21525
23450,20975
" /> 
<polygon style="fill-rule:evenodd; " 
points="23050,20975
23050,21525
22700,21525
22700,20975
" /> 
<path d="M23498 20500 L23502 20500" /> 
<path d="M23500 20498 L23500 20502" /> 
</g>
<g style="fill:#000000; fill-opacity:0.0; stroke:#000000; stroke-opacity:1.00; stroke-linecap:round; stroke-linejoin:round; stroke-width:50" 
   transform="translate(0.00 0.00) scale(1.00 1.00)">
<path d="M23458 20577 L23446 20589" /> 
<path d="M23446 20589 L23411 20601" /> 
<path d="M23411 20601 L23387 20601" /> 
<path d="M23387 20601 L23351 20589" /> 
<path d="M23351 20589 L23327 20565" /> 
<path d="M23327 20565 L23316 20542" /> 
<path d="M23316 20542 L23304 20494" /> 
<path d="M23304 20494 L23304 20458" /> 
<path d="M23304 20458 L23316 20411" /> 
<path d="M23316 20411 L23327 20387" /> 
<path d="M23327 20387 L23351 20363" /> 
<path d="M23351 20363 L23387 20351" /> 
<path d="M23387 20351 L23411 20351" /> 
<path d="M23411 20351 L23446 20363" /> 
<path d="M23446 20363 L23458 20375" /> 
<g style = "stroke-linecap:round;" > 
<path d="M23458 20375 L23458 20375" /> 
</g><path d="M23696 20601 L23554 20601" /> 
<g style = "stroke-linecap:round;" > 
<path d="M23554 20601 L23554 20601" /> 
</g><path d="M23625 20601 L23625 20351" /> 
<path d="M23625 20351 L23601 20387" /> 
<path d="M23601 20387 L23577 20411" /> 
<path d="M23577 20411 L23554 20423" /> 
<g style = "stroke-linecap:round;" > 
<path d="M23554 20423 L23554 20423" /> 
</g><ellipse cx="23900" cy="20950" rx="50" ry="50"  /> 
<path d="M23450 20950 L23850 20950" /> 
<path d="M23850 20950 L23850 21550" /> 
<path d="M23850 21550 L23450 21550" /> 
<path d="M23050 21550 L22650 21550" /> 
<path d="M22650 21550 L22650 20950" /> 
<path d="M22650 20950 L23050 20950" /> 
</g>
<g style="fill:#000000; fill-opacity:1.00; stroke:#000000; stroke-opacity:1.00; stroke-linecap:round; stroke-linejoin:round; stroke-width:0" 
   transform="translate(0.00 0.00) scale(1.00 1.00)">
<polygon style="fill-rule:evenodd; " 
points="22300,20975
22300,21525
21950,21525
21950,20975
" /> 
<polygon style="fill-rule:evenodd; " 
points="21550,20975
21550,21525
21200,21525
21200,20975
" /> 
<path d="M21998 20500 L22002 20500" /> 
<path d="M22000 20498 L22000 20502" /> 
</g>
<g style="fill:#000000; fill-opacity:0.0; stroke:#000000; stroke-opacity:1.00; stroke-linecap:round; stroke-linejoin:round; stroke-width:50" 
   transform="translate(0.00 0.00) scale(1.00 1.00)">
<path d="M21958 20577 L21946 20589" /> 
<path d="M21946 20589 L21911 20601" /> 
<path d="M21911 20601 L21887 20601" /> 
<path d="M21887 20601 L21851 20589" /> 
<path d="M21851 20589 L21827 20565" /> 
<path d="M21827 20565 L21816 20542" /> 
<path d="M21816 20542 L21804 20494" /> 
<path d="M21804 20494 L21804 20458" /> 
<path d="M21804 20458 L21816 20411" /> 
<path d="M21816 20411 L21827 20387" /> 
<path d="M21827 20387 L21851 20363" /> 
<path d="M21851 20363 L21887 20351" /> 
<path d="M21887 20351 L21911 20351" /> 
<path d="M21911 20351 L21946 20363" /> 
<path d="M21946 20363 L21958 20375" /> 
<g style = "stroke-linecap:round;" > 
<path d="M21958 20375 L21958 20375" /> 
</g><path d="M22054 20375 L22066 20363" /> 
<path d="M22066 20363 L22089 20351" /> 
<path d="M22089 20351 L22149 20351" /> 
<path d="M22149 20351 L22173 20363" /> 
<path d="M22173 20363 L22185 20375" /> 
<path d="M22185 20375 L22196 20399" /> 
<path d="M22196 20399 L22196 20423" /> 
<path d="M22196 20423 L22185 20458" /> 
<path d="M22185 20458 L22042 20601" /> 
<path d="M22042 20601 L22196 20601" /> 
<g style = "stroke-linecap:round;" > 
<path d="M22196 20601 L22196 20601" /> 
</g><ellipse cx="22400" cy="20950" rx="50" ry="50"  /> 
<path d="M21950 20950 L22350 20950" /> 
<path d="M22350 20950 L22350 21550" /> 
<path d="M22350 21550 L21950 21550" /> 
<path d="M21550 21550 L21150 21550" /> 
<path d="M21150 21550 L21150 20950" /> 
<path d="M21150 20950 L21550 20950" /> 
</g>
<g style="fill:#000000; fill-opacity:1.00; stroke:#000000; stroke-opacity:1.00; stroke-linecap:round; stroke-linejoin:round; stroke-width:0" 
   transform="translate(0.00 0.00) scale(1.00 1.00)">
<polygon style="fill-rule:evenodd; " 
points="24775,24550
24225,24550
24225,24200
24775,24200
" /> 
<polygon style="fill-rule:evenodd; " 
points="24775,23800
24225,23800
24225,23450
24775,23450
" /> 
<path d="M24998 24000 L25002 24000" /> 
<path d="M25000 23998 L25000 24002" /> 
</g>
<g style="fill:#000000; fill-opacity:0.0; stroke:#000000; stroke-opacity:1.00; stroke-linecap:round; stroke-linejoin:round; stroke-width:50" 
   transform="translate(0.00 0.00) scale(1.00 1.00)">
<path d="M25077 24042 L25089 24054" /> 
<path d="M25089 24054 L25101 24089" /> 
<path d="M25101 24089 L25101 24113" /> 
<path d="M25101 24113 L25089 24149" /> 
<path d="M25089 24149 L25065 24173" /> 
<path d="M25065 24173 L25042 24184" /> 
<path d="M25042 24184 L24994 24196" /> 
<path d="M24994 24196 L24958 24196" /> 
<path d="M24958 24196 L24911 24184" /> 
<path d="M24911 24184 L24887 24173" /> 
<path d="M24887 24173 L24863 24149" /> 
<path d="M24863 24149 L24851 24113" /> 
<path d="M24851 24113 L24851 24089" /> 
<path d="M24851 24089 L24863 24054" /> 
<path d="M24863 24054 L24875 24042" /> 
<g style = "stroke-linecap:round;" > 
<path d="M24875 24042 L24875 24042" /> 
</g><path d="M24851 23958 L24851 23804" /> 
<path d="M24851 23804 L24946 23887" /> 
<path d="M24946 23887 L24946 23851" /> 
<path d="M24946 23851 L24958 23827" /> 
<path d="M24958 23827 L24970 23815" /> 
<path d="M24970 23815 L24994 23804" /> 
<path d="M24994 23804 L25054 23804" /> 
<path d="M25054 23804 L25077 23815" /> 
<path d="M25077 23815 L25089 23827" /> 
<path d="M25089 23827 L25101 23851" /> 
<path d="M25101 23851 L25101 23923" /> 
<path d="M25101 23923 L25089 23946" /> 
<path d="M25089 23946 L25077 23958" /> 
<g style = "stroke-linecap:round;" > 
<path d="M25077 23958 L25077 23958" /> 
</g><ellipse cx="24800" cy="24650" rx="50" ry="50"  /> 
<path d="M24800 24200 L24800 24600" /> 
<path d="M24800 24600 L24200 24600" /> 
<path d="M24200 24600 L24200 24200" /> 
<path d="M24200 23800 L24200 23400" /> 
<path d="M24200 23400 L24800 23400" /> 
<path d="M24800 23400 L24800 23800" /> 
</g>
<g style="fill:#000000; fill-opacity:1.00; stroke:#000000; stroke-opacity:1.00; stroke-linecap:round; stroke-linejoin:round; stroke-width:0" 
   transform="translate(0.00 0.00) scale(1.00 1.00)">
<polygon style="fill-rule:evenodd; " 
points="19700,21525
19700,20975
20050,20975
20050,21525
" /> 
<polygon style="fill-rule:evenodd; " 
points="20450,21525
20450,20975
20800,20975
20800,21525
" /> 
<path d="M20498 20500 L20502 20500" /> 
<path d="M20500 20498 L20500 20502" /> 
</g>
<g style="fill:#000000; fill-opacity:0.0; stroke:#000000; stroke-opacity:1.00; stroke-linecap:round; stroke-linejoin:round; stroke-width:50" 
   transform="translate(0.00 0.00) scale(1.00 1.00)">
<path d="M20458 20577 L20446 20589" /> 
<path d="M20446 20589 L20411 20601" /> 
<path d="M20411 20601 L20387 20601" /> 
<path d="M20387 20601 L20351 20589" /> 
<path d="M20351 20589 L20327 20565" /> 
<path d="M20327 20565 L20316 20542" /> 
<path d="M20316 20542 L20304 20494" /> 
<path d="M20304 20494 L20304 20458" /> 
<path d="M20304 20458 L20316 20411" /> 
<path d="M20316 20411 L20327 20387" /> 
<path d="M20327 20387 L20351 20363" /> 
<path d="M20351 20363 L20387 20351" /> 
<path d="M20387 20351 L20411 20351" /> 
<path d="M20411 20351 L20446 20363" /> 
<path d="M20446 20363 L20458 20375" /> 
<g style = "stroke-linecap:round;" > 
<path d="M20458 20375 L20458 20375" /> 
</g><path d="M20673 20435 L20673 20601" /> 
<g style = "stroke-linecap:round;" > 
<path d="M20673 20601 L20673 20601" /> 
</g><path d="M20613 20339 L20554 20518" /> 
<path d="M20554 20518 L20708 20518" /> 
<g style = "stroke-linecap:round;" > 
<path d="M20708 20518 L20708 20518" /> 
</g><ellipse cx="19600" cy="21550" rx="50" ry="50"  /> 
<path d="M20050 21550 L19650 21550" /> 
<path d="M19650 21550 L19650 20950" /> 
<path d="M19650 20950 L20050 20950" /> 
<path d="M20450 20950 L20850 20950" /> 
<path d="M20850 20950 L20850 21550" /> 
<path d="M20850 21550 L20450 21550" /> 
</g>
<g style="fill:#000000; fill-opacity:1.00; stroke:#000000; stroke-opacity:1.00; stroke-linecap:round; stroke-linejoin:round; stroke-width:0" 
   transform="translate(0.00 0.00) scale(1.00 1.00)">
<polygon style="fill-rule:evenodd; " 
points="19700,26800
19700,26200
20300,26200
20300,26800
" /> 
</g>
<g style="fill:#FFFFFF; fill-opacity:1.00; stroke:#808000; stroke-opacity:1.00; stroke-linecap:round; stroke-linejoin:round; stroke-width:0" 
   transform="translate(0.00 0.00) scale(1.00 1.00)">
<ellipse cx="20000" cy="26500" rx="200" ry="200"  /> 
</g>
<g style="fill:#000000; fill-opacity:1.00; stroke:#000000; stroke-opacity:1.00; stroke-linecap:round; stroke-linejoin:round; stroke-width:0" 
   transform="translate(0.00 0.00) scale(1.00 1.00)">
<ellipse cx="21000" cy="26500" rx="300" ry="300"  /> 
</g>
<g style="fill:#FFFFFF; fill-opacity:1.00; stroke:#808000; stroke-opacity:1.00; stroke-linecap:round; stroke-linejoin:round; stroke-width:0" 
   transform="translate(0.00 0.00) scale(1.00 1.00)">
<ellipse cx="21000" cy="26500" rx="200" ry="200"  /> 
</g>
<g style="fill:#000000; fill-opacity:1.00; stroke:#000000; stroke-opacity:1.00; stroke-linecap:round; stroke-linejoin:round; stroke-width:0" 
   transform="translate(0.00 0.00) scale(1.00 1.00)">
<ellipse cx="22000" cy="26500" rx="300" ry="300"  /> 
</g>
<g style="fill:#FFFFFF; fill-opacity:1.00; stroke:#808000; stroke-opacity:1.00; stroke-linecap:round; stroke-linejoin:round; stroke-width:0" 
   transform="translate(0.00 0.00) scale(1.00 1.00)">
<ellipse cx="22000" cy="26500" rx="200" ry="200"  /> 
</g>
<g style="fill:#000000; fill-opacity:1.00; stroke:#000000; stroke-opacity:1.00; stroke-linecap:round; stroke-linejoin:round; stroke-width:0" 
   transform="translate(0.00 0.00) scale(1.00 1.00)">
<ellipse cx="23000" cy="26500" rx="300" ry="300"  /> 
</g>
<g style="fill:#FFFFFF; fill-opacity:1.00; stroke:#808000; stroke-opacity:1.00; stroke-linecap:round; stroke-linejoin:round; stroke-width:0" 
   transform="translate(0.00 0.00) scale(1.00 1.00)">
<ellipse cx="23000" cy="26500" rx="200" ry="200"  /> 
</g>
<g style="fill:#FFFFFF; fill-opacity:1.00; stroke:#000000; stroke-opacity:1.00; stroke-linecap:round; stroke-linejoin:round; stroke-width:0" 
   transform="translate(0.00 0.00) scale(1.00 1.00)">
<path d="M21498 25500 L21502 25500" /> 
<path d="M21500 25498 L21500 25502" /> 
</g>
<g style="fill:#000000; fill-opacity:0.0; stroke:#000000; stroke-opacity:1.00; stroke-linecap:round; stroke-linejoin:round; stroke-width:80" 
   transform="translate(0.00 0.00) scale(1.00 1.00)">
<path d="M21205 25662 L21205 25262" /> 
<path d="M21205 25262 L21358 25262" /> 
<path d="M21358 25262 L21396 25281" /> 
<path d="M21396 25281 L21415 25300" /> 
<path d="M21415 25300 L21434 25338" /> 
<path d="M21434 25338 L21434 25395" /> 
<path d="M21434 25395 L21415 25433" /> 
<path d="M21415 25433 L21396 25452" /> 
<path d="M21396 25452 L21358 25471" /> 
<path d="M21358 25471 L21205 25471" /> 
<g style = "stroke-linecap:round;" > 
<path d="M21205 25471 L21205 25471" /> 
</g><path d="M21815 25662 L21586 25662" /> 
<g style = "stroke-linecap:round;" > 
<path d="M21586 25662 L21586 25662" /> 
</g><path d="M21700 25662 L21700 25262" /> 
<path d="M21700 25262 L21662 25319" /> 
<path d="M21662 25319 L21624 25357" /> 
<path d="M21624 25357 L21586 25376" /> 
<g style = "stroke-linecap:round;" > 
<path d="M21586 25376 L21586 25376" /> 
</g></g>
<g style="fill:#000000; fill-opacity:0.0; stroke:#000000; stroke-opacity:1.00; stroke-linecap:round; stroke-linejoin:round; stroke-width:100" 
   transform="translate(0.00 0.00) scale(1.00 1.00)">
<path d="M23500 27000 L19500 27000" /> 
<path d="M23500 26000 L19500 26000" /> 
<path d="M19500 26000 L19500 27000" /> 
<path d="M23500 27000 L23500 26000" /> 
</g>
<g style="fill:#000000; fill-opacity:1.00; stroke:#000000; stroke-opacity:1.00; stroke-linecap:round; stroke-linejoin:round; stroke-width:0" 
   transform="translate(0.00 0.00) scale(1.00 1.00)">
<polygon style="fill-rule:evenodd; " 
points="22750,19000
22750,17000
23450,17000
23450,19000
" /> 
<polygon style="fill-rule:evenodd; " 
points="21650,19000
21650,17000
22350,17000
22350,19000
" /> 
<polygon style="fill-rule:evenodd; " 
points="20550,19000
20550,17000
21250,17000
21250,19000
" /> 
<polygon style="fill-rule:evenodd; " 
points="19450,19000
19450,17000
20150,17000
20150,19000
" /> 
<polygon style="fill-rule:evenodd; " 
points="23850,19000
23850,17000
24550,17000
24550,19000
" /> 
<polygon style="fill-rule:evenodd; " 
points="20000,19000
20000,17000
20700,17000
20700,19000
" /> 
<polygon style="fill-rule:evenodd; " 
points="21100,19000
21100,17000
21800,17000
21800,19000
" /> 
<polygon style="fill-rule:evenodd; " 
points="22200,19000
22200,17000
22900,17000
22900,19000
" /> 
<polygon style="fill-rule:evenodd; " 
points="23300,19000
23300,17000
24000,17000
24000,19000
" /> 
<path d="M21998 13400 L22002 13400" /> 
<path d="M22000 13398 L22000 13402" /> 
</g>
<g style="fill:#000000; fill-opacity:0.0; stroke:#000000; stroke-opacity:1.00; stroke-linecap:round; stroke-linejoin:round; stroke-width:120" 
   transform="translate(0.00 0.00) scale(1.00 1.00)">
<path d="M21800 13043 L21800 13471" /> 
<path d="M21800 13471 L21772 13557" /> 
<path d="M21772 13557 L21715 13614" /> 
<path d="M21715 13614 L21629 13643" /> 
<path d="M21629 13643 L21572 13643" /> 
<g style = "stroke-linecap:round;" > 
<path d="M21572 13643 L21572 13643" /> 
</g><path d="M22400 13643 L22057 13643" /> 
<g style = "stroke-linecap:round;" > 
<path d="M22057 13643 L22057 13643" /> 
</g><path d="M22229 13643 L22229 13043" /> 
<path d="M22229 13043 L22172 13129" /> 
<path d="M22172 13129 L22114 13186" /> 
<path d="M22114 13186 L22057 13214" /> 
<g style = "stroke-linecap:round;" > 
<path d="M22057 13214 L22057 13214" /> 
</g></g>
<g style="fill:#000000; fill-opacity:0.0; stroke:#000000; stroke-opacity:1.00; stroke-linecap:round; stroke-linejoin:round; stroke-width:0" 
   transform="translate(0.00 0.00) scale(1.00 1.00)">
<path d="M21998 15800 L22002 15800" /> 
<path d="M22000 15798 L22000 15802" /> 
</g>
<g style="fill:#000000; fill-opacity:0.0; stroke:#000000; stroke-opacity:1.00; stroke-linecap:round; stroke-linejoin:round; stroke-width:120" 
   transform="translate(0.00 0.00) scale(1.00 1.00)">
<path d="M21258 16043 L21258 15443" /> 
<path d="M21258 15443 L21401 15443" /> 
<path d="M21401 15443 L21486 15471" /> 
<path d="M21486 15471 L21544 15529" /> 
<path d="M21544 15529 L21572 15586" /> 
<path d="M21572 15586 L21601 15700" /> 
<path d="M21601 15700 L21601 15786" /> 
<path d="M21601 15786 L21572 15900" /> 
<path d="M21572 15900 L21544 15957" /> 
<path d="M21544 15957 L21486 16014" /> 
<path d="M21486 16014 L21401 16043" /> 
<path d="M21401 16043 L21258 16043" /> 
<path d="M22058 15729 L22144 15757" /> 
<path d="M22144 15757 L22172 15786" /> 
<path d="M22172 15786 L22201 15843" /> 
<path d="M22201 15843 L22201 15929" /> 
<path d="M22201 15929 L22172 15986" /> 
<path d="M22172 15986 L22144 16014" /> 
<path d="M22144 16014 L22086 16043" /> 
<path d="M22086 16043 L21858 16043" /> 
<path d="M21858 16043 L21858 15443" /> 
<path d="M21858 15443 L22058 15443" /> 
<path d="M22058 15443 L22115 15471" /> 
<path d="M22115 15471 L22144 15500" /> 
<path d="M22144 15500 L22172 15557" /> 
<path d="M22172 15557 L22172 15614" /> 
<path d="M22172 15614 L22144 15671" /> 
<path d="M22144 15671 L22115 15700" /> 
<path d="M22115 15700 L22058 15729" /> 
<path d="M22058 15729 L21858 15729" /> 
<g style = "stroke-linecap:round;" > 
<path d="M21858 15729 L21858 15729" /> 
</g><path d="M22486 16043 L22601 16043" /> 
<path d="M22601 16043 L22658 16014" /> 
<path d="M22658 16014 L22686 15986" /> 
<path d="M22686 15986 L22744 15900" /> 
<path d="M22744 15900 L22772 15786" /> 
<path d="M22772 15786 L22772 15557" /> 
<path d="M22772 15557 L22744 15500" /> 
<path d="M22744 15500 L22715 15471" /> 
<path d="M22715 15471 L22658 15443" /> 
<path d="M22658 15443 L22544 15443" /> 
<path d="M22544 15443 L22486 15471" /> 
<path d="M22486 15471 L22458 15500" /> 
<path d="M22458 15500 L22429 15557" /> 
<path d="M22429 15557 L22429 15700" /> 
<path d="M22429 15700 L22458 15757" /> 
<path d="M22458 15757 L22486 15786" /> 
<path d="M22486 15786 L22544 15814" /> 
<path d="M22544 15814 L22658 15814" /> 
<path d="M22658 15814 L22715 15786" /> 
<path d="M22715 15786 L22744 15757" /> 
<path d="M22744 15757 L22772 15700" /> 
<g style = "stroke-linecap:round;" > 
<path d="M22772 15700 L22772 15700" /> 
</g><path d="M18650 12250 L25400 12250" /> 
<path d="M25650 16500 L18400 16500" /> 
<path d="M25900 16500 L25650 16500" /> 
<path d="M25900 15250 L18150 15250" /> 
<path d="M28150 15250 L25900 15250" /> 
<path d="M15900 14750 L28150 14750" /> 
<path d="M25400 14750 L25400 12250" /> 
<path d="M28150 15250 L28150 14750" /> 
<path d="M25900 16500 L25900 15250" /> 
<path d="M24900 17000 L25650 17000" /> 
<path d="M25650 17000 L25650 16500" /> 
<path d="M18650 14750 L18650 12250" /> 
<path d="M18150 15250 L15900 15250" /> 
<path d="M15900 15250 L15900 14750" /> 
<path d="M18400 16500 L18150 16500" /> 
<path d="M18150 16500 L18150 15250" /> 
<path d="M19150 17000 L18400 17000" /> 
<path d="M18400 17000 L18400 16500" /> 
</g>
<g style="fill:#000000; fill-opacity:1.00; stroke:#000000; stroke-opacity:1.00; stroke-linecap:round; stroke-linejoin:round; stroke-width:0" 
   transform="translate(0.00 0.00) scale(1.00 1.00)">
<polygon style="fill-rule:evenodd; " 
points="24225,24950
24775,24950
24775,25300
24225,25300
" /> 
<polygon style="fill-rule:evenodd; " 
points="24225,25700
24775,25700
24775,26050
24225,26050
" /> 
<path d="M24998 25500 L25002 25500" /> 
<path d="M25000 25498 L25000 25502" /> 
</g>
<g style="fill:#000000; fill-opacity:0.0; stroke:#000000; stroke-opacity:1.00; stroke-linecap:round; stroke-linejoin:round; stroke-width:50" 
   transform="translate(0.00 0.00) scale(1.00 1.00)">
<path d="M25077 25542 L25089 25554" /> 
<path d="M25089 25554 L25101 25589" /> 
<path d="M25101 25589 L25101 25613" /> 
<path d="M25101 25613 L25089 25649" /> 
<path d="M25089 25649 L25065 25673" /> 
<path d="M25065 25673 L25042 25684" /> 
<path d="M25042 25684 L24994 25696" /> 
<path d="M24994 25696 L24958 25696" /> 
<path d="M24958 25696 L24911 25684" /> 
<path d="M24911 25684 L24887 25673" /> 
<path d="M24887 25673 L24863 25649" /> 
<path d="M24863 25649 L24851 25613" /> 
<path d="M24851 25613 L24851 25589" /> 
<path d="M24851 25589 L24863 25554" /> 
<path d="M24863 25554 L24875 25542" /> 
<g style = "stroke-linecap:round;" > 
<path d="M24875 25542 L24875 25542" /> 
</g><path d="M24851 25315 L24851 25434" /> 
<path d="M24851 25434 L24970 25446" /> 
<path d="M24970 25446 L24958 25434" /> 
<path d="M24958 25434 L24946 25411" /> 
<path d="M24946 25411 L24946 25351" /> 
<path d="M24946 25351 L24958 25327" /> 
<path d="M24958 25327 L24970 25315" /> 
<path d="M24970 25315 L24994 25304" /> 
<path d="M24994 25304 L25054 25304" /> 
<path d="M25054 25304 L25077 25315" /> 
<path d="M25077 25315 L25089 25327" /> 
<path d="M25089 25327 L25101 25351" /> 
<path d="M25101 25351 L25101 25411" /> 
<path d="M25101 25411 L25089 25434" /> 
<path d="M25089 25434 L25077 25446" /> 
<g style = "stroke-linecap:round;" > 
<path d="M25077 25446 L25077 25446" /> 
</g><ellipse cx="24200" cy="24850" rx="50" ry="50"  /> 
<path d="M24200 25300 L24200 24900" /> 
<path d="M24200 24900 L24800 24900" /> 
<path d="M24800 24900 L24800 25300" /> 
<path d="M24800 25700 L24800 26100" /> 
<path d="M24800 26100 L24200 26100" /> 
<path d="M24200 26100 L24200 25700" /> 
</g> 
</svg> 
